<svg xmlns="http://www.w3.org/2000/svg" enable-background="new 0 0 64 64" viewBox="0 0 64 64"><circle cx="32" cy="32" r="32" fill="#6aba7a"/><path d="M63.9,43.31c-0.13-1.39-0.36-2.84-0.68-4.31c-1.14-5.21-3.2-9.68-4.72-12.51c-0.48-0.89-0.91-1.63-1.25-2.2
			c-0.36-0.62-0.83-1.2-1.45-1.85c-0.71-0.75-1.69-2.57-2.76-5.14c-0.92-2.22-1.6-4.25-1.62-4.29c-2.55-7.06-6.02-8.66-7.86-8.99
			c-0.63-0.11-1.28-0.31-2.01-0.61c-1.7-0.68-3.64-1.04-4.94-1.22c-1.05-0.16-2.11,0.31-2.69,1.18c-0.18,0.26-0.37,0.54-0.55,0.82
			l-0.21,0.3c-0.17,0.25-0.27,0.54-0.29,0.79c-0.71,0.18-1.34,0.56-1.82,1.12c-0.83,0.98-1.08,2.31-0.63,3.41
			c2.55,6.29,7.8,6.97,9.57,7.01c0.92,1.05,2.6,1.29,3.72,1.31c-0.25,8.75,1.7,16.19,2.58,19.07l-1.44,0.04
			c-3-4.73-6.52-7.57-10.46-8.45c-3.62-0.8-6.57,0.29-7.94,0.97c-9.37-12.3-25.57-8.05-25.74-8C0.29,21.88,0,22.26,0,22.7v38.17
			c0,0.33,0.17,0.64,0.44,0.82c0.16,0.1,0.34,0.15,0.53,0.15c0.13,0,0.27-0.02,0.39-0.08l19.24-8.55c1.02,0.49,2.12,0.94,3.29,1.33
			c1.21,0.4,2.49,0.74,3.8,1.01c12.37,2.5,25.63-1.86,32.44-4.68c0.29-0.12,0.56-0.26,0.84-0.42c0.42-0.25,0.79-0.54,1.1-0.85
			c0.34-0.33,0.63-0.67,0.87-1.03c0.02-0.03,0.04-0.06,0.06-0.09c0.14-0.22,0.27-0.45,0.39-0.69c0.07-0.14,0.13-0.29,0.18-0.44
			c0.11-0.27,0.21-0.57,0.28-0.88c0.12-0.53,0.17-1.1,0.14-1.68C63.98,44.31,63.94,43.84,63.9,43.31z M61.96,46.04
			c-0.05,0.2-0.11,0.4-0.19,0.61c-0.04,0.09-0.07,0.19-0.12,0.27c-0.09,0.19-0.19,0.37-0.31,0.55c-0.02,0.02-0.04,0.05-0.05,0.08
			c-0.16,0.22-0.35,0.44-0.58,0.67c-0.21,0.2-0.46,0.39-0.73,0.56c-0.19,0.11-0.39,0.22-0.6,0.3c-5.31,2.2-19,7.05-31.31,4.57
			c-1.23-0.25-2.43-0.57-3.57-0.95c-1.23-0.42-2.39-0.9-3.45-1.43c-0.26-0.13-0.56-0.13-0.83-0.01L1.94,59.38V23.47
			c3.16-0.63,16-2.44,23.44,8.11c0.3,0.42,0.89,0.53,1.33,0.25c0.03-0.02,3.2-2.06,7.29-1.14c3.53,0.8,6.72,3.5,9.5,8.04
			c0.18,0.3,0.51,0.46,0.85,0.46l3.29-0.08c0.31-0.01,0.6-0.17,0.77-0.42c0.18-0.26,0.22-0.59,0.11-0.88
			c-0.03-0.09-3.26-9.25-2.86-20.14c0-0.16,0.01-0.32,0.02-0.49c0.02-0.28-0.09-0.56-0.3-0.75c-0.2-0.2-0.48-0.29-0.76-0.27
			c-1.11,0.11-2.91-0.05-3.26-0.75c-0.18-0.36-0.57-0.57-0.96-0.53c-0.23,0.02-5.66,0.43-8.18-5.8c-0.18-0.43-0.06-1,0.3-1.42
			c0.24-0.27,0.77-0.7,1.72-0.49c0.61,0.17,1.04,0.76,1.05,1.49c0.03,1.17,0.7,2.26,1.76,2.83c3.45,1.89,5.33,2.28,6.29,1.3
			c1.02-1.03,0.11-2.79-0.09-3.14c-0.26-0.46-0.85-0.62-1.32-0.36c-0.46,0.26-0.63,0.85-0.37,1.32c0.13,0.23,0.25,0.54,0.3,0.76
			c-0.4-0.03-1.45-0.26-3.88-1.59c-0.45-0.24-0.74-0.69-0.75-1.2c-0.03-1.49-0.97-2.78-2.31-3.23l0.05-0.08
			c0.18-0.27,0.37-0.54,0.55-0.81c0.18-0.26,0.49-0.4,0.81-0.35c0.99,0.13,2.9,0.46,4.49,1.09c0.85,0.36,1.64,0.6,2.4,0.73
			c1.15,0.2,4.07,1.37,6.37,7.71c0.03,0.09,0.71,2.12,1.66,4.4c1.19,2.86,2.24,4.79,3.15,5.74c0.52,0.54,0.9,1.02,1.19,1.5
			c0.32,0.55,0.74,1.26,1.2,2.13c1.2,2.23,3.38,6.75,4.54,12c0.3,1.39,0.51,2.77,0.64,4.1c0.03,0.45,0.07,0.91,0.09,1.36
			C62.07,45.29,62.04,45.67,61.96,46.04z"/><path fill="#f9b986" d="M61.97,43.51c-0.13-1.33-0.34-2.71-0.64-4.1c-1.16-5.25-3.34-9.77-4.54-12c-0.46-0.87-0.88-1.58-1.2-2.13
			c-0.29-0.48-0.67-0.96-1.19-1.5c-0.91-0.95-1.96-2.88-3.15-5.74c-0.95-2.28-1.63-4.31-1.66-4.4c-2.3-6.34-5.22-7.51-6.37-7.71
			c-0.76-0.13-1.55-0.37-2.4-0.73c-1.59-0.63-3.5-0.96-4.49-1.09c-0.32-0.05-0.63,0.09-0.81,0.35C35.34,4.73,35.15,5,34.97,5.27
			l-0.05,0.08c1.34,0.45,2.28,1.74,2.31,3.23c0.01,0.51,0.3,0.96,0.75,1.2c2.43,1.33,3.48,1.56,3.88,1.59
			c-0.05-0.22-0.17-0.53-0.3-0.76c-0.26-0.47-0.09-1.06,0.37-1.32c0.47-0.26,1.06-0.1,1.32,0.36c0.2,0.35,1.11,2.11,0.09,3.14
			c-0.96,0.98-2.84,0.59-6.29-1.3c-1.06-0.57-1.73-1.66-1.76-2.83c-0.01-0.73-0.44-1.32-1.05-1.49c-0.95-0.21-1.48,0.22-1.72,0.49
			c-0.36,0.42-0.48,0.99-0.3,1.42c2.52,6.23,7.95,5.82,8.18,5.8c0.39-0.04,0.78,0.17,0.96,0.53c0.35,0.7,2.15,0.86,3.26,0.75
			c0.28-0.02,0.56,0.07,0.76,0.27c0.21,0.19,0.32,0.47,0.3,0.75c-0.01,0.17-0.02,0.33-0.02,0.49c-0.4,10.89,2.83,20.05,2.86,20.14
			c0.11,0.29,0.07,0.62-0.11,0.88c-0.17,0.25-0.46,0.41-0.77,0.42l-3.29,0.08c-0.34,0-0.67-0.16-0.85-0.46
			c-2.78-4.54-5.97-7.24-9.5-8.04c-4.09-0.92-7.26,1.12-7.29,1.14c-0.44,0.28-1.03,0.17-1.33-0.25C17.94,21.03,5.1,22.84,1.94,23.47
			v35.91l18.28-8.12c0.27-0.12,0.57-0.12,0.83,0.01c1.06,0.53,2.22,1.01,3.45,1.43c1.14,0.38,2.34,0.7,3.57,0.95
			c12.31,2.48,26-2.37,31.31-4.57c0.21-0.08,0.41-0.19,0.6-0.3c0.27-0.17,0.52-0.36,0.73-0.56c0.23-0.23,0.42-0.45,0.58-0.67
			c0.01-0.03,0.03-0.06,0.05-0.08c0.12-0.18,0.22-0.36,0.31-0.55c0.05-0.08,0.08-0.18,0.12-0.27c0.08-0.21,0.14-0.41,0.19-0.61
			c0.08-0.37,0.11-0.75,0.1-1.17C62.04,44.42,62,43.96,61.97,43.51z M46.59,42.36l-1.63,5.2c-0.08,0.25-0.25,0.45-0.48,0.57
			c-0.14,0.07-0.29,0.11-0.45,0.11c-0.1,0-0.2-0.02-0.3-0.05l-1.89-0.62l-4.28,0.41c-0.57,0.05-1.13,0.07-1.68,0.07
			c-4.3,0-8.37-1.54-11.63-4.45l-3.2-2.86l-1.82-0.6c-0.51-0.16-0.78-0.7-0.63-1.21l1.63-5.19c0.08-0.25,0.25-0.46,0.48-0.58
			c0.24-0.12,0.5-0.14,0.75-0.06l1.89,0.62l4.28-0.4c4.9-0.45,9.63,1.09,13.31,4.37l3.2,2.86l1.83,0.6
			C46.47,41.32,46.75,41.86,46.59,42.36z"/><path d="M45.97,41.15l-1.83-0.6l-3.2-2.86c-3.68-3.28-8.41-4.82-13.31-4.37l-4.28,0.4l-1.89-0.62c-0.25-0.08-0.51-0.06-0.75,0.06
			c-0.23,0.12-0.4,0.33-0.48,0.58l-1.63,5.19c-0.15,0.51,0.12,1.05,0.63,1.21l1.82,0.6l3.2,2.86c3.26,2.91,7.33,4.45,11.63,4.45
			c0.55,0,1.11-0.02,1.68-0.07l4.28-0.41l1.89,0.62c0.1,0.03,0.2,0.05,0.3,0.05c0.16,0,0.31-0.04,0.45-0.11
			c0.23-0.12,0.4-0.32,0.48-0.57l1.63-5.2C46.75,41.86,46.47,41.32,45.97,41.15z M20.94,38.67l-0.2-0.07l1.05-3.35l0.24,0.08
			L20.94,38.67z M41.21,45.69l-3.83,0.35c-4.37,0.41-8.57-0.97-11.84-3.88l-2.87-2.56l1.31-3.99l3.83-0.36
			c4.37-0.41,8.57,0.97,11.84,3.89l2.87,2.56L41.21,45.69z M43.4,46.04l-0.24-0.08l1.09-3.33l0.2,0.06L43.4,46.04z"/><polygon fill="#ee3e32" points="22.03 35.33 20.94 38.67 20.74 38.6 21.79 35.25"/><polygon fill="#ee3e32" points="44.45 42.69 43.4 46.04 43.16 45.96 44.25 42.63"/><path fill="#ee3e32" d="M39.65,39.14c-3.27-2.92-7.47-4.3-11.84-3.89l-3.83,0.36l-1.31,3.99l2.87,2.56
			c3.27,2.91,7.47,4.29,11.84,3.88l3.83-0.35l1.31-3.99L39.65,39.14z M40.97,43.4c-0.14,0.44-0.58,0.72-1.04,0.66
			c-1.07-0.14-2.18,0.02-3.36,0.18c-0.89,0.13-1.8,0.25-2.72,0.25c-0.8,0-1.6-0.09-2.4-0.37c-1.52-0.45-2.88-1.23-4-2.3
			c-0.45-0.44-0.85-0.91-1.23-1.37c-0.43-0.51-0.83-0.98-1.27-1.37c-0.29-0.26-0.4-0.67-0.28-1.03c0.12-0.37,0.45-0.63,0.84-0.67
			c0.59-0.05,1.19-0.2,1.83-0.36c0.58-0.14,1.18-0.28,1.81-0.37c1.53-0.2,3.09-0.02,4.62,0.53c1.71,0.54,2.95,1.76,4.15,2.93
			c0.86,0.84,1.66,1.62,2.6,2.14C40.93,42.47,41.12,42.96,40.97,43.4z"/><path d="M40.52,42.25c-0.94-0.52-1.74-1.3-2.6-2.14c-1.2-1.17-2.44-2.39-4.15-2.93c-1.53-0.55-3.09-0.73-4.62-0.53
			c-0.63,0.09-1.23,0.23-1.81,0.37c-0.64,0.16-1.24,0.31-1.83,0.36c-0.39,0.04-0.72,0.3-0.84,0.67c-0.12,0.36-0.01,0.77,0.28,1.03
			c0.44,0.39,0.84,0.86,1.27,1.37c0.38,0.46,0.78,0.93,1.23,1.37c1.12,1.07,2.48,1.85,4,2.3c0.8,0.28,1.6,0.37,2.4,0.37
			c0.92,0,1.83-0.12,2.72-0.25c1.18-0.16,2.29-0.32,3.36-0.18c0.46,0.06,0.9-0.22,1.04-0.66C41.12,42.96,40.93,42.47,40.52,42.25z
			 M36.3,42.32c-1.51,0.21-2.93,0.41-4.26-0.04c-1.26-0.38-2.35-1-3.25-1.86c-0.37-0.36-0.72-0.77-1.08-1.21
			c-0.07-0.08-0.13-0.15-0.2-0.23c0.1-0.02,0.2-0.05,0.29-0.07c0.56-0.14,1.08-0.26,1.6-0.33c1.23-0.16,2.48-0.02,3.75,0.44
			c1.3,0.41,2.33,1.42,3.42,2.48c0.23,0.23,0.47,0.46,0.71,0.69C36.95,42.23,36.62,42.27,36.3,42.32z"/><path fill="#ee3e32" d="M37.28,42.19c-0.33,0.04-0.66,0.08-0.98,0.13c-1.51,0.21-2.93,0.41-4.26-0.04c-1.26-0.38-2.35-1-3.25-1.86
			c-0.37-0.36-0.72-0.77-1.08-1.21c-0.07-0.08-0.13-0.15-0.2-0.23c0.1-0.02,0.2-0.05,0.29-0.07c0.56-0.14,1.08-0.26,1.6-0.33
			c1.23-0.16,2.48-0.02,3.75,0.44c1.3,0.41,2.33,1.42,3.42,2.48C36.8,41.73,37.04,41.96,37.28,42.19z"/></svg>